<?xml version="1.0" encoding="UTF-8" standalone="no"?>
<!-- Created with Inkscape (http://www.inkscape.org/) -->

<svg
   xmlns:ns0="http://www.iki.fi/pav/software/textext/"
   xmlns:dc="http://purl.org/dc/elements/1.1/"
   xmlns:cc="http://creativecommons.org/ns#"
   xmlns:rdf="http://www.w3.org/1999/02/22-rdf-syntax-ns#"
   xmlns:svg="http://www.w3.org/2000/svg"
   xmlns="http://www.w3.org/2000/svg"
   xmlns:sodipodi="http://sodipodi.sourceforge.net/DTD/sodipodi-0.dtd"
   xmlns:inkscape="http://www.inkscape.org/namespaces/inkscape"
   width="97.25161mm"
   height="55.36562mm"
   viewBox="0 0 344.59232 196.17739"
   id="svg2"
   version="1.1"
   inkscape:version="0.91 r"
   sodipodi:docname="rotator_phase_space.svg">
  <sodipodi:namedview
     id="base"
     pagecolor="#ffffff"
     bordercolor="#666666"
     borderopacity="1.0"
     inkscape:pageopacity="0.0"
     inkscape:pageshadow="2"
     inkscape:zoom="1.5412719"
     inkscape:cx="241.73071"
     inkscape:cy="89.978788"
     inkscape:document-units="px"
     inkscape:current-layer="layer1"
     showgrid="true"
     inkscape:snap-nodes="true"
     inkscape:snap-grids="true"
     inkscape:object-paths="false"
     inkscape:snap-intersection-paths="false"
     inkscape:object-nodes="true"
     inkscape:snap-smooth-nodes="false"
     inkscape:snap-midpoints="false"
     inkscape:snap-bbox="true"
     inkscape:window-width="1366"
     inkscape:window-height="750"
     inkscape:window-x="0"
     inkscape:window-y="0"
     inkscape:window-maximized="1"
     fit-margin-top="0"
     fit-margin-left="0"
     fit-margin-right="0"
     fit-margin-bottom="0">
    <inkscape:grid
       type="xygrid"
       id="grid3336"
       originx="-53.149607"
       originy="-768.96648" />
  </sodipodi:namedview>
  <defs
     id="defs4">
    <marker
       inkscape:isstock="true"
       style="overflow:visible"
       id="marker4498"
       refX="0"
       refY="0"
       orient="auto"
       inkscape:stockid="Arrow2Mend">
      <path
         transform="scale(-0.6,-0.6)"
         d="M 8.7185878,4.0337352 -2.2072895,0.01601326 8.7185884,-4.0017078 c -1.7454984,2.3720609 -1.7354408,5.6174519 -6e-7,8.035443 z"
         style="fill:#000000;fill-opacity:1;fill-rule:evenodd;stroke:#000000;stroke-width:0.625;stroke-linejoin:round;stroke-opacity:1"
         id="path4500"
         inkscape:connector-curvature="0" />
    </marker>
    <marker
       inkscape:stockid="Arrow2Mend"
       orient="auto"
       refY="0"
       refX="0"
       id="Arrow2Mend"
       style="overflow:visible"
       inkscape:isstock="true"
       inkscape:collect="always">
      <path
         id="path4171"
         style="fill:#000000;fill-opacity:1;fill-rule:evenodd;stroke:#000000;stroke-width:0.625;stroke-linejoin:round;stroke-opacity:1"
         d="M 8.7185878,4.0337352 -2.2072895,0.01601326 8.7185884,-4.0017078 c -1.7454984,2.3720609 -1.7354408,5.6174519 -6e-7,8.035443 z"
         transform="scale(-0.6,-0.6)"
         inkscape:connector-curvature="0" />
    </marker>
    <marker
       inkscape:stockid="Arrow1Mend"
       orient="auto"
       refY="0"
       refX="0"
       id="Arrow1Mend"
       style="overflow:visible"
       inkscape:isstock="true">
      <path
         id="path4153"
         d="M 0,0 5,-5 -12.5,0 5,5 0,0 Z"
         style="fill:#000000;fill-opacity:1;fill-rule:evenodd;stroke:#000000;stroke-width:1pt;stroke-opacity:1"
         transform="matrix(-0.4,0,0,-0.4,-4,0)"
         inkscape:connector-curvature="0" />
    </marker>
    <marker
       inkscape:stockid="Arrow1Send"
       orient="auto"
       refY="0"
       refX="0"
       id="Arrow1Send"
       style="overflow:visible"
       inkscape:isstock="true">
      <path
         id="path4159"
         d="M 0,0 5,-5 -12.5,0 5,5 0,0 Z"
         style="fill:#000000;fill-opacity:1;fill-rule:evenodd;stroke:#000000;stroke-width:1pt;stroke-opacity:1"
         transform="matrix(-0.2,0,0,-0.2,-1.2,0)"
         inkscape:connector-curvature="0" />
    </marker>
  </defs>
  <metadata
     id="metadata7">
    <rdf:RDF>
      <cc:Work
         rdf:about="">
        <dc:format>image/svg+xml</dc:format>
        <dc:type
           rdf:resource="http://purl.org/dc/dcmitype/StillImage" />
        <dc:title></dc:title>
      </cc:Work>
    </rdf:RDF>
  </metadata>
  <g
     inkscape:label="Layer 1"
     inkscape:groupmode="layer"
     id="layer1"
     transform="translate(-53.149604,-87.218296)">
    <ellipse
       style="opacity:1;fill:#cccccc;fill-opacity:1;fill-rule:nonzero;stroke:#000000;stroke-width:1;stroke-linecap:butt;stroke-linejoin:miter;stroke-miterlimit:0;stroke-dasharray:none;stroke-dashoffset:0;stroke-opacity:1"
       id="path3474"
       cx="159.44882"
       cy="184.25195"
       rx="88.58268"
       ry="53.149605" />
    <path
       style="fill:none;fill-rule:evenodd;stroke:#000000;stroke-width:1px;stroke-linecap:butt;stroke-linejoin:miter;stroke-opacity:1;marker-end:url(#Arrow2Mend)"
       d="m 159.44882,272.83463 0,-159.44882"
       id="path3338"
       inkscape:connector-curvature="0"
       sodipodi:nodetypes="cc" />
    <path
       style="fill:none;fill-rule:evenodd;stroke:#000000;stroke-width:1px;stroke-linecap:butt;stroke-linejoin:miter;stroke-opacity:1;marker-end:url(#marker4498)"
       d="m 53.149604,184.25195 248.031496,2e-5"
       id="path4490"
       inkscape:connector-curvature="0"
       sodipodi:nodetypes="cc" />
    <path
       style="fill:none;fill-rule:evenodd;stroke:#000000;stroke-width:1;stroke-linecap:butt;stroke-linejoin:miter;stroke-miterlimit:4;stroke-dasharray:3, 3;stroke-dashoffset:0;stroke-opacity:1"
       d="m 248.0315,113.38583 0,141.73228"
       id="path4552"
       inkscape:connector-curvature="0" />
    <path
       style="fill:none;fill-rule:evenodd;stroke:#000000;stroke-width:1;stroke-linecap:butt;stroke-linejoin:miter;stroke-miterlimit:4;stroke-dasharray:3, 3;stroke-dashoffset:0;stroke-opacity:1"
       d="m 159.44882,131.10236 124.01575,0"
       id="path4548"
       inkscape:connector-curvature="0" />
    <path
       style="fill:none;fill-rule:evenodd;stroke:#000000;stroke-width:1;stroke-linecap:butt;stroke-linejoin:miter;stroke-miterlimit:4;stroke-dasharray:3, 3;stroke-dashoffset:0;stroke-opacity:1"
       d="m 159.44882,237.40157 124.01575,0"
       id="path4550"
       inkscape:connector-curvature="0" />
    <g
       id="g3390"
       transform="matrix(2.2866671,0,0,-2.286666,-362.21979,1714.2269)"
       xml:space="preserve"
       stroke-miterlimit="10.433"
       font-style="normal"
       font-variant="normal"
       font-weight="normal"
       font-stretch="normal"
       font-size-adjust="none"
       letter-spacing="normal"
       word-spacing="normal"
       ns0:text="$p_{\\varphi}$"
       ns0:preamble=""
       style="font-style:normal;font-variant:normal;font-weight:normal;font-stretch:normal;letter-spacing:normal;word-spacing:normal;text-anchor:start;fill:none;fill-opacity:1;fill-rule:evenodd;stroke:#000000;stroke-width:0.43731782;stroke-linecap:butt;stroke-linejoin:miter;stroke-miterlimit:10.43299961;stroke-dasharray:none;stroke-dashoffset:0;stroke-opacity:1"><path
         d="m 223.88,705.91 -0.01,-0.03 0,-0.03 -0.01,-0.03 -0.01,-0.02 0,-0.03 -0.01,-0.02 -0.01,-0.02 -0.01,-0.02 0,-0.02 -0.01,-0.02 -0.01,-0.02 -0.01,-0.01 -0.01,-0.02 -0.01,-0.01 -0.01,-0.02 -0.01,-0.01 -0.02,-0.01 -0.01,-0.01 -0.02,-0.01 -0.02,0 -0.02,-0.01 -0.02,-0.01 -0.02,0 -0.02,-0.01 -0.03,0 -0.02,-0.01 -0.02,0 -0.01,0 -0.02,0 -0.01,0 -0.02,0 -0.02,0 -0.01,0 -0.02,0 -0.02,0 -0.02,0 -0.02,0 -0.02,0 c -0.12,0 -0.23,0 -0.23,-0.19 0,-0.08 0.05,-0.12 0.13,-0.12 0.27,0 0.56,0.03 0.84,0.03 0.33,0 0.66,-0.03 0.98,-0.03 0.05,0 0.18,0 0.18,0.2 0,0.11 -0.1,0.11 -0.24,0.11 -0.49,0 -0.49,0.07 -0.49,0.15 0,0.12 0.41,1.74 0.48,1.99 0.13,-0.29 0.41,-0.63 0.92,-0.63 l -0.01,0.21 c -0.66,0 -0.79,0.83 -0.79,0.89 0,0.02 0,0.04 0.03,0.16 l 0.49,1.94 c 0.07,0.27 0.34,0.55 0.52,0.7 0.35,0.31 0.64,0.38 0.8,0.38 0.4,0 0.64,-0.35 0.64,-0.94 0,-0.58 -0.33,-1.72 -0.51,-2.1 -0.34,-0.7 -0.81,-1.03 -1.18,-1.03 l 0.01,-0.21 c 1.15,0 2.4,1.45 2.4,2.91 0,0.93 -0.57,1.59 -1.33,1.59 -0.49,0 -0.97,-0.36 -1.3,-0.75 -0.1,0.54 -0.53,0.75 -0.89,0.75 -0.46,0 -0.65,-0.39 -0.74,-0.57 -0.18,-0.34 -0.31,-0.93 -0.31,-0.96 0,-0.1 0.1,-0.1 0.12,-0.1 0.1,0 0.11,0.01 0.17,0.22 0.17,0.71 0.37,1.19 0.73,1.19 0.16,0 0.3,-0.08 0.3,-0.46 0,-0.23 -0.03,-0.34 -0.07,-0.51 z"
         id="path3392"
         inkscape:connector-curvature="0"
         style="fill:#000000;stroke-width:0" /><path
         d="m 230.65,705.57 0.01,0 0.01,0 0.02,-0.01 0.01,0 0.03,0 0.03,0 0.03,0 0.03,0 0.03,0 0.03,0 c 1.26,0 2.41,1.02 2.41,2.12 l -0.25,-0.14 c 0,-0.7 -0.88,-1.51 -2.08,-1.51 -0.06,0 -0.16,0 -0.22,0.01 l 0,0 c 0.14,0.8 0.19,1.11 0.53,1.57 0.31,0.42 0.68,0.61 1.03,0.61 0.48,0 0.74,-0.31 0.74,-0.68 l 0.25,0.14 c 0,0.62 -0.37,1.02 -0.92,1.02 -0.96,0 -1.47,-1.23 -1.66,-1.75 -0.09,-0.25 -0.25,-0.74 -0.29,-0.87 -0.76,0.1 -1.25,0.45 -1.25,0.96 0,0.01 0.04,0.79 0.6,1.41 0.05,0.05 0.06,0.07 0.06,0.09 0,0.09 -0.09,0.09 -0.11,0.09 -0.06,0 -0.09,0 -0.22,-0.16 -0.39,-0.48 -0.57,-1.2 -0.57,-1.5 0,-0.62 0.45,-1.15 1.35,-1.35 -0.35,-1.07 -0.39,-1.21 -0.39,-1.27 0,-0.19 0.16,-0.22 0.23,-0.22 0.08,0 0.22,0.05 0.28,0.15 0.04,0.11 0.11,0.46 0.25,1.29 z"
         id="path3394"
         inkscape:connector-curvature="0"
         style="fill:#000000;stroke-width:0" /></g>    <g
       style="font-style:normal;font-variant:normal;font-weight:normal;font-stretch:normal;letter-spacing:normal;word-spacing:normal;text-anchor:start;fill:none;fill-opacity:1;fill-rule:evenodd;stroke:#000000;stroke-width:0.43731782;stroke-linecap:butt;stroke-linejoin:miter;stroke-miterlimit:10.43299961;stroke-dasharray:none;stroke-dashoffset:0;stroke-opacity:1"
       ns0:preamble=""
       ns0:text="$p_{\\vartheta}$"
       word-spacing="normal"
       letter-spacing="normal"
       font-size-adjust="none"
       font-stretch="normal"
       font-weight="normal"
       font-variant="normal"
       font-style="normal"
       stroke-miterlimit="10.433"
       xml:space="preserve"
       transform="matrix(2.2866671,0,0,-2.286666,-220.70834,1817.163)"
       id="content"><path
         id="path3445"
         d="m 223.88,705.91 -0.01,-0.03 0,-0.03 -0.01,-0.03 -0.01,-0.02 0,-0.03 -0.01,-0.02 -0.01,-0.02 -0.01,-0.02 0,-0.02 -0.01,-0.02 -0.01,-0.02 -0.01,-0.01 -0.01,-0.02 -0.01,-0.01 -0.01,-0.02 -0.01,-0.01 -0.02,-0.01 -0.01,-0.01 -0.02,-0.01 -0.02,0 -0.02,-0.01 -0.02,-0.01 -0.02,0 -0.02,-0.01 -0.03,0 -0.02,-0.01 -0.02,0 -0.01,0 -0.02,0 -0.01,0 -0.02,0 -0.02,0 -0.01,0 -0.02,0 -0.02,0 -0.02,0 -0.02,0 -0.02,0 c -0.12,0 -0.23,0 -0.23,-0.19 0,-0.08 0.05,-0.12 0.13,-0.12 0.27,0 0.56,0.03 0.84,0.03 0.33,0 0.66,-0.03 0.98,-0.03 0.05,0 0.18,0 0.18,0.2 0,0.11 -0.1,0.11 -0.24,0.11 -0.49,0 -0.49,0.07 -0.49,0.15 0,0.12 0.41,1.74 0.48,1.99 0.13,-0.29 0.41,-0.63 0.92,-0.63 l -0.01,0.21 c -0.66,0 -0.79,0.83 -0.79,0.89 0,0.02 0,0.04 0.03,0.16 l 0.49,1.94 c 0.07,0.27 0.34,0.55 0.52,0.7 0.35,0.31 0.64,0.38 0.8,0.38 0.4,0 0.64,-0.35 0.64,-0.94 0,-0.58 -0.33,-1.72 -0.51,-2.1 -0.34,-0.7 -0.81,-1.03 -1.18,-1.03 l 0.01,-0.21 c 1.15,0 2.4,1.45 2.4,2.91 0,0.93 -0.57,1.59 -1.33,1.59 -0.49,0 -0.97,-0.36 -1.3,-0.75 -0.1,0.54 -0.53,0.75 -0.89,0.75 -0.46,0 -0.65,-0.39 -0.74,-0.57 -0.18,-0.34 -0.31,-0.93 -0.31,-0.96 0,-0.1 0.1,-0.1 0.12,-0.1 0.1,0 0.11,0.01 0.17,0.22 0.17,0.71 0.37,1.19 0.73,1.19 0.16,0 0.3,-0.08 0.3,-0.46 0,-0.23 -0.03,-0.34 -0.07,-0.51 z"
         inkscape:connector-curvature="0"
         style="fill:#000000;stroke-width:0" /><path
         id="path3447"
         d="m 232.51,708.13 0.01,0.04 0.01,0.05 0.01,0.05 0.01,0.04 0.01,0.04 0.01,0.05 0,0.04 0.01,0.04 0.01,0.04 0,0.03 0.01,0.04 0,0.04 0.01,0.03 0,0.03 0,0.03 0.01,0.03 0,0.03 0,0.03 0,0.03 0,0.02 0.01,0.03 0,0.02 0,0.02 0,0.02 0,0.02 0,0.02 0,0.01 0,0.02 0,0.01 0,0.01 0,0.01 0,0.01 c 0,0.57 -0.19,1.47 -0.9,1.47 l -0.02,-0.2 c 0.34,0 0.43,-0.44 0.43,-0.88 0,-0.41 -0.09,-0.82 -0.18,-1.19 l 0,0 c -0.31,0.09 -1.13,0.33 -1.13,1 0,0.52 0.44,1.07 0.88,1.07 l 0.02,0.2 c -0.58,0 -1.13,-0.63 -1.13,-1.27 0,-0.74 0.76,-1.04 1.31,-1.19 -0.12,-0.47 -0.27,-1.05 -0.52,-1.49 -0.3,-0.54 -0.56,-0.82 -0.88,-0.82 -0.5,0 -0.57,0.32 -0.57,0.54 0,0.19 0.04,0.32 0.19,0.94 0.02,0.06 0.07,0.28 0.11,0.4 0.03,0.13 0.07,0.31 0.07,0.4 0,0.4 -0.35,0.66 -0.74,0.66 -0.27,0 -0.44,-0.18 -0.55,-0.37 -0.14,-0.24 -0.25,-0.66 -0.25,-0.7 0,-0.09 0.1,-0.09 0.12,-0.09 0.1,0 0.1,0.02 0.15,0.21 0.11,0.41 0.24,0.75 0.51,0.75 0.18,0 0.23,-0.15 0.23,-0.34 0,-0.12 -0.01,-0.17 -0.05,-0.35 l -0.11,-0.4 c -0.02,-0.1 -0.12,-0.47 -0.13,-0.53 -0.03,-0.16 -0.07,-0.33 -0.07,-0.48 0,-0.67 0.54,-0.84 1.07,-0.84 0.92,0 1.69,1.32 1.97,2.37 0.12,-0.02 0.32,-0.05 0.35,-0.05 0.06,0 0.09,0.07 0.09,0.1 0,0.07 -0.05,0.09 -0.16,0.11 z"
         inkscape:connector-curvature="0"
         style="fill:#000000;stroke-width:0" /></g>    <g
       id="g3521"
       transform="matrix(2.2866671,0,0,-2.286666,-298.11774,1897.8276)"
       xml:space="preserve"
       stroke-miterlimit="10.433"
       font-style="normal"
       font-variant="normal"
       font-weight="normal"
       font-stretch="normal"
       font-size-adjust="none"
       letter-spacing="normal"
       word-spacing="normal"
       ns0:text="$\\sqrt{2\\Theta E}$"
       ns0:preamble=""
       style="font-style:normal;font-variant:normal;font-weight:normal;font-stretch:normal;letter-spacing:normal;word-spacing:normal;text-anchor:start;fill:none;fill-opacity:1;fill-rule:evenodd;stroke:#000000;stroke-width:0.43731782;stroke-linecap:butt;stroke-linejoin:miter;stroke-miterlimit:10.43299961;stroke-dasharray:none;stroke-dashoffset:0;stroke-opacity:1"><path
         style="fill:#000000;stroke-width:0"
         inkscape:connector-curvature="0"
         d="m 227.3,707.07 -1.75,3.86 c -0.07,0.16 -0.12,0.16 -0.15,0.16 -0.01,0 -0.06,0 -0.17,-0.08 l -0.94,-0.72 c -0.13,-0.09 -0.13,-0.12 -0.13,-0.15 0,-0.05 0.03,-0.11 0.1,-0.11 0.06,0 0.23,0.14 0.34,0.21 0.06,0.05 0.2,0.16 0.31,0.24 l 1.96,-4.3 c 0.07,-0.16 0.12,-0.16 0.21,-0.16 0.15,0 0.18,0.06 0.25,0.2 l 4.52,9.34 c 0.07,0.14 0.07,0.18 0.07,0.2 0,0.1 -0.08,0.2 -0.2,0.2 -0.08,0 -0.15,-0.05 -0.23,-0.21 z"
         id="path3523" /><line
         style="stroke-width:0.398"
         x1="231.73"
         y1="715.76001"
         x2="252.39"
         y2="715.76001"
         id="line3525" /><path
         style="fill:#000000;stroke-width:0"
         inkscape:connector-curvature="0"
         d="m 233,707.89 1.05,1.02 c 1.55,1.37 2.15,1.91 2.15,2.9 0,1.14 -0.89,1.93 -2.11,1.93 -1.12,0 -1.86,-0.91 -1.86,-1.8 0,-0.55 0.5,-0.55 0.53,-0.55 0.17,0 0.52,0.12 0.52,0.52 0,0.26 -0.18,0.52 -0.53,0.52 -0.08,0 -0.1,0 -0.13,-0.01 0.23,0.65 0.77,1.01 1.34,1.01 0.91,0 1.34,-0.8 1.34,-1.62 0,-0.79 -0.5,-1.58 -1.05,-2.19 l -1.91,-2.13 c -0.11,-0.11 -0.11,-0.13 -0.11,-0.37 l 3.69,0 0.28,1.73 -0.25,0 c -0.05,-0.3 -0.12,-0.73 -0.22,-0.88 -0.07,-0.08 -0.72,-0.08 -0.94,-0.08 z"
         id="path3527" /><path
         style="fill:#000000;stroke-width:0"
         inkscape:connector-curvature="0"
         d="m 243.89,710.49 -0.01,0.19 -0.01,0.19 -0.02,0.18 -0.03,0.18 -0.04,0.18 -0.04,0.17 -0.05,0.17 -0.06,0.17 -0.07,0.16 -0.07,0.15 -0.09,0.16 -0.08,0.14 -0.09,0.15 -0.1,0.13 -0.11,0.13 -0.11,0.13 -0.11,0.12 -0.12,0.11 -0.13,0.11 -0.13,0.1 -0.13,0.1 -0.14,0.08 -0.15,0.08 -0.14,0.07 -0.15,0.07 -0.16,0.06 -0.15,0.04 -0.16,0.04 -0.16,0.04 -0.17,0.02 -0.17,0.01 -0.16,0.01 0,-0.22 c 1,0 2.34,-0.9 2.34,-3.42 0,-2.53 -1.4,-3.35 -2.33,-3.35 l 0,0 c -0.99,0 -2.35,0.85 -2.35,3.35 0,2.56 1.38,3.42 2.34,3.42 l 0,0.22 c -1.79,0 -3.31,-1.59 -3.31,-3.64 0,-2.03 1.53,-3.58 3.31,-3.58 1.81,0 3.31,1.58 3.31,3.58 z"
         id="path3529" /><polygon
         style="fill:#000000;stroke-width:0"
         points="242.11,710.9 239.05,710.9 239.05,711.24 238.8,711.24 238.8,709.81 239.05,709.81 239.05,710.15 242.11,710.15 242.11,709.81 242.36,709.81 242.36,711.24 242.11,711.24 "
         id="polygon3531" /><path
         style="fill:#000000;stroke-width:0"
         inkscape:connector-curvature="0"
         d="m 251.51,709.44 0,0 0,0.01 0.01,0.01 0,0.01 0,0.01 0.01,0.01 0,0.01 0.01,0.01 0,0.01 0,0.01 0,0 0.01,0 0,0.01 0,0 0,0.01 0,0 0,0.01 0,0 0.01,0 0,0.01 0,0 0,0 0,0 0,0.01 0,0 c 0,0.01 0,0.11 -0.12,0.11 -0.09,0 -0.11,-0.06 -0.13,-0.12 -0.65,-1.47 -1.02,-2.14 -2.72,-2.14 l -1.45,0 c -0.14,0 -0.16,0 -0.22,0.01 -0.1,0.01 -0.13,0.02 -0.13,0.1 0,0.03 0,0.05 0.05,0.23 l 0.68,2.71 0.98,0 c 0.85,0 0.85,-0.21 0.85,-0.45 0,-0.07 0,-0.19 -0.07,-0.49 -0.02,-0.05 -0.03,-0.08 -0.03,-0.11 0,-0.05 0.04,-0.11 0.13,-0.11 0.08,0 0.11,0.05 0.15,0.2 l 0.57,2.32 c 0,0.06 -0.05,0.11 -0.12,0.11 -0.09,0 -0.11,-0.06 -0.14,-0.18 -0.21,-0.75 -0.39,-0.98 -1.31,-0.98 l -0.93,0 0.6,2.39 c 0.09,0.35 0.09,0.39 0.53,0.39 l 1.4,0 c 1.22,0 1.52,-0.29 1.52,-1.1 0,-0.24 0,-0.26 -0.04,-0.53 0,-0.06 -0.01,-0.13 -0.01,-0.18 0,-0.05 0.03,-0.11 0.12,-0.11 0.11,0 0.12,0.06 0.14,0.24 l 0.19,1.72 c 0.04,0.27 -0.01,0.27 -0.26,0.27 l -5.03,0 c -0.2,0 -0.3,0 -0.3,-0.2 0,-0.11 0.09,-0.11 0.28,-0.11 0.37,0 0.65,0 0.65,-0.18 0,-0.04 0,-0.06 -0.05,-0.23 l -1.31,-5.26 c -0.1,-0.39 -0.12,-0.47 -0.91,-0.47 -0.17,0 -0.28,0 -0.28,-0.19 0,-0.12 0.09,-0.12 0.28,-0.12 l 5.16,0 c 0.23,0 0.24,0.02 0.31,0.17 z"
         id="path3533" /></g>    <g
       style="font-style:normal;font-variant:normal;font-weight:normal;font-stretch:normal;letter-spacing:normal;word-spacing:normal;text-anchor:start;fill:none;fill-opacity:1;fill-rule:evenodd;stroke:#000000;stroke-width:0.43731782;stroke-linecap:butt;stroke-linejoin:miter;stroke-miterlimit:10.43299961;stroke-dasharray:none;stroke-dashoffset:0;stroke-opacity:1"
       ns0:preamble=""
       ns0:text="$\\sqrt{2\\Theta E}\\sin\\vartheta$"
       word-spacing="normal"
       letter-spacing="normal"
       font-size-adjust="none"
       font-stretch="normal"
       font-weight="normal"
       font-variant="normal"
       font-style="normal"
       stroke-miterlimit="10.433"
       xml:space="preserve"
       transform="matrix(2.2866671,0,0,-2.286666,-227.73013,1757.4707)"
       id="g3613"><path
         id="path3615"
         d="m 227.3,707.07 -1.75,3.86 c -0.07,0.16 -0.12,0.16 -0.15,0.16 -0.01,0 -0.06,0 -0.17,-0.08 l -0.94,-0.72 c -0.13,-0.09 -0.13,-0.12 -0.13,-0.15 0,-0.05 0.03,-0.11 0.1,-0.11 0.06,0 0.23,0.14 0.34,0.21 0.06,0.05 0.2,0.16 0.31,0.24 l 1.96,-4.3 c 0.07,-0.16 0.12,-0.16 0.21,-0.16 0.15,0 0.18,0.06 0.25,0.2 l 4.52,9.34 c 0.07,0.14 0.07,0.18 0.07,0.2 0,0.1 -0.08,0.2 -0.2,0.2 -0.08,0 -0.15,-0.05 -0.23,-0.21 z"
         inkscape:connector-curvature="0"
         style="fill:#000000;stroke-width:0" /><line
         id="line3617"
         y2="715.76001"
         x2="252.39"
         y1="715.76001"
         x1="231.73"
         style="stroke-width:0.398" /><path
         id="path3619"
         d="m 233,707.89 1.05,1.02 c 1.55,1.37 2.15,1.91 2.15,2.9 0,1.14 -0.89,1.93 -2.11,1.93 -1.12,0 -1.86,-0.91 -1.86,-1.8 0,-0.55 0.5,-0.55 0.53,-0.55 0.17,0 0.52,0.12 0.52,0.52 0,0.26 -0.18,0.52 -0.53,0.52 -0.08,0 -0.1,0 -0.13,-0.01 0.23,0.65 0.77,1.01 1.34,1.01 0.91,0 1.34,-0.8 1.34,-1.62 0,-0.79 -0.5,-1.58 -1.05,-2.19 l -1.91,-2.13 c -0.11,-0.11 -0.11,-0.13 -0.11,-0.37 l 3.69,0 0.28,1.73 -0.25,0 c -0.05,-0.3 -0.12,-0.73 -0.22,-0.88 -0.07,-0.08 -0.72,-0.08 -0.94,-0.08 z"
         inkscape:connector-curvature="0"
         style="fill:#000000;stroke-width:0" /><path
         id="path3621"
         d="m 243.89,710.49 -0.01,0.19 -0.01,0.19 -0.02,0.18 -0.03,0.18 -0.04,0.18 -0.04,0.17 -0.05,0.17 -0.06,0.17 -0.07,0.16 -0.07,0.15 -0.09,0.16 -0.08,0.14 -0.09,0.15 -0.1,0.13 -0.11,0.13 -0.11,0.13 -0.11,0.12 -0.12,0.11 -0.13,0.11 -0.13,0.1 -0.13,0.1 -0.14,0.08 -0.15,0.08 -0.14,0.07 -0.15,0.07 -0.16,0.06 -0.15,0.04 -0.16,0.04 -0.16,0.04 -0.17,0.02 -0.17,0.01 -0.16,0.01 0,-0.22 c 1,0 2.34,-0.9 2.34,-3.42 0,-2.53 -1.4,-3.35 -2.33,-3.35 l 0,0 c -0.99,0 -2.35,0.85 -2.35,3.35 0,2.56 1.38,3.42 2.34,3.42 l 0,0.22 c -1.79,0 -3.31,-1.59 -3.31,-3.64 0,-2.03 1.53,-3.58 3.31,-3.58 1.81,0 3.31,1.58 3.31,3.58 z"
         inkscape:connector-curvature="0"
         style="fill:#000000;stroke-width:0" /><polygon
         id="polygon3623"
         points="239.05,710.9 239.05,711.24 238.8,711.24 238.8,709.81 239.05,709.81 239.05,710.15 242.11,710.15 242.11,709.81 242.36,709.81 242.36,711.24 242.11,711.24 242.11,710.9 "
         style="fill:#000000;stroke-width:0" /><path
         id="path3625"
         d="m 251.51,709.44 0,0 0,0.01 0.01,0.01 0,0.01 0,0.01 0.01,0.01 0,0.01 0.01,0.01 0,0.01 0,0.01 0,0 0.01,0 0,0.01 0,0 0,0.01 0,0 0,0.01 0,0 0.01,0 0,0.01 0,0 0,0 0,0 0,0.01 0,0 c 0,0.01 0,0.11 -0.12,0.11 -0.09,0 -0.11,-0.06 -0.13,-0.12 -0.65,-1.47 -1.02,-2.14 -2.72,-2.14 l -1.45,0 c -0.14,0 -0.16,0 -0.22,0.01 -0.1,0.01 -0.13,0.02 -0.13,0.1 0,0.03 0,0.05 0.05,0.23 l 0.68,2.71 0.98,0 c 0.85,0 0.85,-0.21 0.85,-0.45 0,-0.07 0,-0.19 -0.07,-0.49 -0.02,-0.05 -0.03,-0.08 -0.03,-0.11 0,-0.05 0.04,-0.11 0.13,-0.11 0.08,0 0.11,0.05 0.15,0.2 l 0.57,2.32 c 0,0.06 -0.05,0.11 -0.12,0.11 -0.09,0 -0.11,-0.06 -0.14,-0.18 -0.21,-0.75 -0.39,-0.98 -1.31,-0.98 l -0.93,0 0.6,2.39 c 0.09,0.35 0.09,0.39 0.53,0.39 l 1.4,0 c 1.22,0 1.52,-0.29 1.52,-1.1 0,-0.24 0,-0.26 -0.04,-0.53 0,-0.06 -0.01,-0.13 -0.01,-0.18 0,-0.05 0.03,-0.11 0.12,-0.11 0.11,0 0.12,0.06 0.14,0.24 l 0.19,1.72 c 0.04,0.27 -0.01,0.27 -0.26,0.27 l -5.03,0 c -0.2,0 -0.3,0 -0.3,-0.2 0,-0.11 0.09,-0.11 0.28,-0.11 0.37,0 0.65,0 0.65,-0.18 0,-0.04 0,-0.06 -0.05,-0.23 l -1.31,-5.26 c -0.1,-0.39 -0.12,-0.47 -0.91,-0.47 -0.17,0 -0.28,0 -0.28,-0.19 0,-0.12 0.09,-0.12 0.28,-0.12 l 5.16,0 c 0.23,0 0.24,0.02 0.31,0.17 z"
         inkscape:connector-curvature="0"
         style="fill:#000000;stroke-width:0" /><path
         id="path3627"
         d="m 256.12,709.05 0.02,0 0.03,-0.01 0.03,0 0.03,-0.01 0.03,-0.01 0.04,-0.01 0.04,-0.01 0.04,-0.01 0.04,-0.01 0.04,-0.01 0.04,-0.02 0.05,-0.02 0.04,-0.01 0.04,-0.03 0.05,-0.02 0.04,-0.02 0.04,-0.03 0.05,-0.03 0.04,-0.03 0.04,-0.03 0.04,-0.03 0.03,-0.04 0.03,-0.04 0.04,-0.04 0.02,-0.05 0.02,-0.02 0.01,-0.03 0.01,-0.02 0.01,-0.03 0.01,-0.02 0.01,-0.03 0.01,-0.03 0.01,-0.02 0,-0.03 0.01,-0.03 0,-0.03 0,-0.04 0.01,-0.03 0,-0.03 c 0,-0.51 -0.35,-0.91 -1.13,-0.91 -0.83,0 -1.19,0.57 -1.38,1.42 -0.03,0.12 -0.04,0.16 -0.14,0.16 -0.13,0 -0.13,-0.07 -0.13,-0.24 l 0,-1.32 c 0,-0.16 0,-0.23 0.11,-0.23 0.05,0 0.06,0.01 0.25,0.19 0.02,0.02 0.02,0.04 0.2,0.23 0.44,-0.41 0.88,-0.42 1.09,-0.42 1.15,0 1.61,0.66 1.61,1.38 0,0.52 -0.3,0.82 -0.42,0.94 -0.33,0.32 -0.72,0.4 -1.14,0.48 -0.56,0.11 -1.22,0.23 -1.22,0.81 0,0.35 0.26,0.76 1.11,0.76 1.1,0 1.15,-0.9 1.17,-1.21 0.01,-0.09 0.1,-0.09 0.12,-0.09 0.13,0 0.13,0.06 0.13,0.24 l 0,1.01 c 0,0.17 0,0.24 -0.11,0.24 -0.05,0 -0.07,0 -0.2,-0.12 -0.03,-0.04 -0.13,-0.13 -0.17,-0.16 -0.38,0.28 -0.79,0.28 -0.94,0.28 -1.21,0 -1.59,-0.67 -1.59,-1.23 0,-0.34 0.16,-0.62 0.43,-0.84 0.32,-0.26 0.6,-0.32 1.31,-0.46 z"
         inkscape:connector-curvature="0"
         style="fill:#000000;stroke-width:0" /><path
         id="path3629"
         d="m 259.74,711.52 -1.39,-0.11 0,-0.31 c 0.65,0 0.74,-0.06 0.74,-0.55 l 0,-2.67 c 0,-0.45 -0.11,-0.45 -0.78,-0.45 l 0,-0.31 c 0.32,0.02 0.86,0.04 1.09,0.04 0.35,0 0.7,-0.02 1.04,-0.04 l 0,0.31 c -0.66,0 -0.7,0.05 -0.7,0.44 z"
         inkscape:connector-curvature="0"
         style="fill:#000000;stroke-width:0" /><path
         id="path3631"
         d="m 259.78,713.24 0,0.03 0,0.03 0,0.03 -0.01,0.03 0,0.02 -0.01,0.03 -0.01,0.03 -0.01,0.02 -0.01,0.02 -0.01,0.03 -0.02,0.02 -0.01,0.02 -0.02,0.02 -0.01,0.02 -0.02,0.02 -0.02,0.02 -0.01,0.01 -0.02,0.02 -0.02,0.01 -0.03,0.02 -0.02,0.01 -0.02,0.01 -0.02,0.01 -0.02,0.01 -0.03,0.01 -0.02,0.01 -0.03,0.01 -0.02,0 -0.03,0.01 -0.02,0 -0.03,0 -0.02,0 c -0.31,0 -0.53,-0.27 -0.53,-0.53 0,-0.26 0.22,-0.52 0.53,-0.52 0.27,0 0.52,0.21 0.52,0.52 z"
         inkscape:connector-curvature="0"
         style="fill:#000000;stroke-width:0" /><path
         id="path3633"
         d="m 261.84,710.54 0,-2.66 c 0,-0.45 -0.11,-0.45 -0.77,-0.45 l 0,-0.31 c 0.35,0.02 0.85,0.04 1.12,0.04 0.26,0 0.78,-0.02 1.12,-0.04 l 0,0.31 c -0.67,0 -0.78,0 -0.78,0.45 l 0,1.83 c 0,1.03 0.71,1.59 1.34,1.59 0.63,0 0.74,-0.54 0.74,-1.1 l 0,-2.32 c 0,-0.45 -0.11,-0.45 -0.78,-0.45 l 0,-0.31 c 0.35,0.02 0.86,0.04 1.13,0.04 0.26,0 0.77,-0.02 1.11,-0.04 l 0,0.31 c -0.52,0 -0.76,0 -0.77,0.3 l 0,1.9 c 0,0.85 0,1.16 -0.31,1.52 -0.14,0.17 -0.47,0.37 -1.05,0.37 -0.72,0 -1.19,-0.43 -1.47,-1.05 l 0,1.05 -1.4,-0.11 0,-0.31 c 0.7,0 0.77,-0.07 0.77,-0.56 z"
         inkscape:connector-curvature="0"
         style="fill:#000000;stroke-width:0" /><path
         id="path3635"
         d="m 273.03,710.66 0.02,0.08 0.02,0.07 0.01,0.08 0.02,0.07 0.01,0.07 0.01,0.07 0.01,0.06 0.02,0.07 0.01,0.06 0,0.06 0.01,0.06 0.01,0.06 0.01,0.05 0,0.06 0.01,0.05 0,0.04 0.01,0.05 0,0.05 0.01,0.04 0,0.04 0,0.04 0,0.03 0,0.03 0.01,0.04 0,0.02 0,0.03 0,0.03 0,0.02 0,0.02 0,0.01 0,0.02 0,0.01 c 0,0.37 -0.06,1.98 -1.11,1.98 l -0.01,-0.22 c 0.25,0 0.52,-0.15 0.52,-1.18 0,-0.63 -0.16,-1.3 -0.29,-1.87 l 0,0 c -0.48,0.17 -1.44,0.56 -1.44,1.46 0,0.62 0.52,1.59 1.21,1.59 l 0.01,0.22 c -0.82,0 -1.47,-1.04 -1.47,-1.82 0,-0.96 0.94,-1.44 1.63,-1.67 -0.21,-0.89 -0.37,-1.47 -0.7,-2.14 -0.13,-0.28 -0.61,-1.27 -1.2,-1.27 -0.67,0 -0.73,0.51 -0.73,0.8 0,0.26 0.08,0.57 0.13,0.8 0.06,0.25 0.12,0.47 0.19,0.77 l 0.11,0.48 c 0.06,0.16 0.1,0.37 0.1,0.52 0,0.6 -0.44,0.92 -0.9,0.92 -0.46,0 -0.65,-0.39 -0.74,-0.57 -0.18,-0.34 -0.31,-0.93 -0.31,-0.96 0,-0.1 0.1,-0.1 0.12,-0.1 0.1,0 0.11,0.01 0.17,0.22 0.17,0.71 0.37,1.19 0.73,1.19 0.17,0 0.31,-0.08 0.31,-0.46 0,-0.22 -0.14,-0.75 -0.23,-1.12 -0.04,-0.17 -0.13,-0.51 -0.18,-0.73 -0.08,-0.3 -0.14,-0.54 -0.14,-0.83 0,-0.95 0.7,-1.14 1.34,-1.14 1.06,0 2.12,1.57 2.63,3.43 0.1,-0.02 0.39,-0.09 0.45,-0.09 0.04,0 0.1,0.03 0.1,0.12 0,0.08 -0.07,0.09 -0.21,0.12 z"
         inkscape:connector-curvature="0"
         style="fill:#000000;stroke-width:0" /></g>  </g>
</svg>
