<?xml version="1.0" encoding="UTF-8" standalone="no"?>
<!-- Created with Inkscape (http://www.inkscape.org/) -->

<svg
   xmlns:ns0="http://www.iki.fi/pav/software/textext/"
   xmlns:dc="http://purl.org/dc/elements/1.1/"
   xmlns:cc="http://creativecommons.org/ns#"
   xmlns:rdf="http://www.w3.org/1999/02/22-rdf-syntax-ns#"
   xmlns:svg="http://www.w3.org/2000/svg"
   xmlns="http://www.w3.org/2000/svg"
   xmlns:sodipodi="http://sodipodi.sourceforge.net/DTD/sodipodi-0.dtd"
   xmlns:inkscape="http://www.inkscape.org/namespaces/inkscape"
   width="89.58567mm"
   height="76.776215mm"
   viewBox="0 0 317.42954 272.0417"
   id="svg2"
   version="1.1"
   inkscape:version="0.91 r"
   sodipodi:docname="sikinga.svg">
  <sodipodi:namedview
     id="base"
     pagecolor="#ffffff"
     bordercolor="#666666"
     borderopacity="1.0"
     inkscape:pageopacity="0.0"
     inkscape:pageshadow="2"
     inkscape:zoom="1.2999097"
     inkscape:cx="304.17478"
     inkscape:cy="174.3012"
     inkscape:document-units="px"
     inkscape:current-layer="g6151"
     showgrid="true"
     inkscape:window-width="1920"
     inkscape:window-height="1062"
     inkscape:window-x="1366"
     inkscape:window-y="0"
     inkscape:window-maximized="1"
     fit-margin-top="0"
     fit-margin-left="0"
     fit-margin-right="0"
     fit-margin-bottom="0">
    <inkscape:grid
       id="grid3336"
       type="xygrid"
       originx="-140.84648"
       originy="-424.31101" />
  </sodipodi:namedview>
  <defs
     id="defs4">
    <marker
       inkscape:isstock="true"
       style="overflow:visible"
       id="Arrow2Mend"
       refX="0"
       refY="0"
       orient="auto"
       inkscape:stockid="Arrow2Mend">
      <path
         transform="scale(-0.6,-0.6)"
         d="M 8.7185878,4.0337352 -2.2072895,0.01601326 8.7185884,-4.0017078 c -1.7454984,2.3720609 -1.7354408,5.6174519 -6e-7,8.035443 z"
         style="fill:#000000;fill-opacity:1;fill-rule:evenodd;stroke:#000000;stroke-width:0.625;stroke-linejoin:round;stroke-opacity:1"
         id="path4183"
         inkscape:connector-curvature="0" />
    </marker>
    <marker
       inkscape:isstock="true"
       style="overflow:visible"
       id="Arrow1Send"
       refX="0"
       refY="0"
       orient="auto"
       inkscape:stockid="Arrow1Send">
      <path
         transform="matrix(-0.2,0,0,-0.2,-1.2,0)"
         style="fill:#000000;fill-opacity:1;fill-rule:evenodd;stroke:#000000;stroke-width:1pt;stroke-opacity:1"
         d="M 0,0 5,-5 -12.5,0 5,5 0,0 Z"
         id="path4171"
         inkscape:connector-curvature="0" />
    </marker>
    <clipPath
       clipPathUnits="userSpaceOnUse"
       id="clipPath6171">
      <rect
         style="opacity:1;fill:none;fill-opacity:1;fill-rule:nonzero;stroke:#000000;stroke-width:0.48700157;stroke-linecap:butt;stroke-linejoin:miter;stroke-miterlimit:4;stroke-dasharray:1.94800626, 0.48700156;stroke-dashoffset:0;stroke-opacity:1"
         id="rect6173"
         width="172.55956"
         height="155.30371"
         x="109.60857"
         y="-752.56525"
         transform="scale(1,-1)" />
    </clipPath>
  </defs>
  <metadata
     id="metadata7">
    <rdf:RDF>
      <cc:Work
         rdf:about="">
        <dc:format>image/svg+xml</dc:format>
        <dc:type
           rdf:resource="http://purl.org/dc/dcmitype/StillImage" />
        <dc:title></dc:title>
      </cc:Work>
    </rdf:RDF>
  </metadata>
  <g
     id="layer1"
     inkscape:groupmode="layer"
     inkscape:label="Layer 1"
     transform="translate(-140.84647,-356.00947)">
    <g
       ns0:preamble=""
       ns0:text="$\\varphi$\n$m$\n$l$\n$l(1-\\cos\\varphi)$"
       word-spacing="normal"
       letter-spacing="normal"
       font-size-adjust="none"
       font-stretch="normal"
       font-weight="normal"
       font-variant="normal"
       font-style="normal"
       stroke-miterlimit="10.433"
       xml:space="preserve"
       transform="matrix(2.0533822,0,0,-2.0533808,-121.12297,1901.3125)"
       id="content"
       style="font-style:normal;font-variant:normal;font-weight:normal;font-stretch:normal;letter-spacing:normal;word-spacing:normal;text-anchor:start;fill:none;fill-opacity:1;fill-rule:evenodd;stroke:#000000;stroke-width:0.48700157;stroke-linecap:butt;stroke-linejoin:miter;stroke-miterlimit:10.43299961;stroke-dasharray:none;stroke-dashoffset:0;stroke-opacity:1"><g
         id="g6151"
         clip-path="url(#clipPath6171)"><circle
           style="opacity:1;fill:none;fill-opacity:1;fill-rule:nonzero;stroke:#000000;stroke-width:1.77165353;stroke-linecap:butt;stroke-linejoin:miter;stroke-miterlimit:4;stroke-dasharray:none;stroke-dashoffset:0;stroke-opacity:1"
           id="path3340"
           cx="354.33072"
           cy="414.56693"
           r="212.59842"
           transform="matrix(0.4870014,0,0,-0.48700173,58.987056,925.94247)" /><path
           style="fill:none;fill-rule:evenodd;stroke:#000000;stroke-width:1px;stroke-linecap:butt;stroke-linejoin:miter;stroke-opacity:1"
           d="m 354.33071,414.56693 0,212.59842"
           id="path3342"
           inkscape:connector-curvature="0"
           transform="matrix(0.4870014,0,0,-0.48700173,58.987056,925.94247)" /><path
           style="fill:none;fill-rule:evenodd;stroke:#000000;stroke-width:1px;stroke-linecap:butt;stroke-linejoin:miter;stroke-opacity:1"
           d="M 237.40157,591.73228 354.33071,414.56693"
           id="path3344"
           inkscape:connector-curvature="0"
           transform="matrix(0.4870014,0,0,-0.48700173,58.987056,925.94247)" /><circle
           style="opacity:1;fill:#000000;fill-opacity:1;fill-rule:nonzero;stroke:#000000;stroke-width:1.77165353;stroke-linecap:butt;stroke-linejoin:miter;stroke-miterlimit:4;stroke-dasharray:none;stroke-dashoffset:0;stroke-opacity:1"
           id="path3348"
           cx="237.40158"
           cy="591.7323"
           r="7.0866141"
           transform="matrix(0.4870014,0,0,-0.48700173,58.987056,925.94247)" /><path
           style="opacity:1;fill:none;fill-opacity:1;fill-rule:nonzero;stroke:#000000;stroke-width:1.77199996;stroke-linecap:butt;stroke-linejoin:miter;stroke-miterlimit:4;stroke-dasharray:none;stroke-dashoffset:0;stroke-opacity:1;marker-end:url(#Arrow2Mend)"
           id="path3350"
           sodipodi:type="arc"
           sodipodi:cx="354.33072"
           sodipodi:cy="414.56693"
           sodipodi:rx="106.29922"
           sodipodi:ry="106.29922"
           sodipodi:start="1.5735908"
           sodipodi:end="2.1287232"
           d="m 354.03367,520.86573 a 106.29922,106.29922 0 0 1 -55.9808,-16.11939"
           sodipodi:open="true"
           transform="matrix(0.4870014,0,0,-0.48700173,58.987056,925.94247)" /><path
           style="fill:none;fill-rule:evenodd;stroke:#000000;stroke-width:1;stroke-linecap:butt;stroke-linejoin:miter;stroke-miterlimit:4;stroke-dasharray:4, 1;stroke-dashoffset:0;stroke-opacity:1"
           d="m 471.25984,591.73228 -233.85827,0"
           id="path4494"
           inkscape:connector-curvature="0"
           transform="matrix(0.4870014,0,0,-0.48700173,58.987056,925.94247)" /><path
           style="fill:#000000;stroke-width:0"
           inkscape:connector-curvature="0"
           d="m 220.03472,686.17419 0,-0.0145 0,-0.0145 0,0 0,-0.0145 -0.0145,-0.0145 0,-0.0145 0,-0.0145 -0.0145,-0.0145 0,0 0,-0.0145 0,-0.0145 -0.0145,-0.0145 0,0 0,-0.0145 0,-0.0145 0,0 0,-0.0145 -0.0145,0 0,-0.0145 0,0 0,-0.0145 0,0 0,-0.0145 0,0 0,-0.0145 0,-0.0145 -0.0145,0 0,-0.0145 0,-0.0145 0,0 c 0,-0.31878 0.27532,-0.40572 0.42022,-0.40572 0.0725,0 0.39123,0.0434 0.53614,0.37674 0.0434,0.11593 0.11591,0.57961 0.50715,2.63721 0.13041,-0.0145 0.23184,-0.029 0.47817,-0.029 2.39088,0 4.60786,2.26046 4.60786,4.53541 l -0.40572,-0.31878 c 0,-1.63739 -1.85474,-3.3907 -4.07172,-3.3907 l 0,0 c -0.11593,0 -0.14491,0 -0.26083,0.0145 -0.17388,0 -0.18837,0.0145 -0.18837,0.058 0,0.029 0.24633,1.34758 0.2898,1.55045 0.44919,1.85473 1.56494,3.2313 2.85456,3.2313 0.98533,0 1.37656,-0.78247 1.37656,-1.4635 l 0.40572,0.31878 c 0,1.11574 -0.56511,1.98515 -1.63738,1.98515 -2.10107,0 -2.95599,-2.7966 -3.82539,-5.60768 -1.56494,0.2898 -2.3619,1.10124 -2.3619,2.13005 0,0.40572 0.33328,1.98514 1.1882,2.98496 0.11591,0.13041 0.11591,0.15939 0.11591,0.18838 0,0.0579 -0.029,0.14489 -0.17388,0.14489 -0.39123,0 -1.50697,-2.08658 -1.50697,-3.47763 0,-1.34758 0.95635,-2.40536 2.4923,-2.76761 z"
           id="path4513" /><path
           style="fill:#000000;stroke-width:0"
           inkscape:connector-curvature="0"
           d="m 163.09877,630.265 0,-0.01 0,-0.02 -0.01,-0.01 0,-0.02 -0.01,-0.03 0,-0.03 -0.01,-0.03 -0.01,-0.04 -0.01,-0.03 0,-0.03 -0.01,-0.01 0,-0.02 0,-0.01 -0.01,-0.02 0,-0.01 0,-0.01 0,-0.02 -0.01,-0.01 0,-0.01 0,-0.01 0,-0.01 0,-0.01 -0.01,-0.01 0,0 0,-0.01 0,-0.01 c 0,-0.18 0.14,-0.26 0.29,-0.26 0.12,0 0.3,0.07 0.37,0.27 0.01,0.02 0.13,0.49 0.19,0.74 l 0.22,0.89 c 0.06,0.22 0.12,0.44 0.17,0.67 0.04,0.17 0.12,0.46 0.13,0.5 0.15,0.3 0.67,1.21 1.62,1.21 0.45,0 0.53,-0.37 0.53,-0.7 0,-0.25 -0.06,-0.52 -0.14,-0.82 l -0.28,-1.16 -0.2,-0.75 c -0.04,-0.2 -0.13,-0.54 -0.13,-0.59 0,-0.18 0.14,-0.26 0.29,-0.26 0.31,0 0.37,0.24 0.44,0.56 0.14,0.56 0.51,2.01 0.6,2.4 0.03,0.12 0.56,1.32 1.64,1.32 0.43,0 0.54,-0.34 0.54,-0.7 0,-0.56 -0.42,-1.7 -0.62,-2.22 -0.09,-0.24 -0.12,-0.35 -0.12,-0.55 0,-0.47 0.34,-0.81 0.81,-0.81 0.94,0 1.3,1.45 1.3,1.53 0,0.1 -0.09,0.1 -0.11,0.1 -0.1,0 -0.1,-0.04 -0.16,-0.18 -0.14,-0.53 -0.46,-1.24 -1.01,-1.24 -0.17,0 -0.24,0.1 -0.24,0.33 0,0.25 0.09,0.49 0.18,0.71 0.19,0.51 0.61,1.62 0.61,2.18 0,0.65 -0.4,1.07 -1.15,1.07 -0.74,0 -1.25,-0.44 -1.62,-0.97 -0.01,0.13 -0.04,0.47 -0.32,0.71 -0.25,0.21 -0.56,0.26 -0.81,0.26 -0.9,0 -1.39,-0.64 -1.55,-0.87 -0.05,0.57 -0.47,0.87 -0.92,0.87 -0.46,0 -0.65,-0.39 -0.74,-0.57 -0.18,-0.35 -0.3,-0.93 -0.3,-0.96 0,-0.1 0.09,-0.1 0.12,-0.1 0.09,0 0.1,0.01 0.16,0.22 0.17,0.71 0.37,1.19 0.73,1.19 0.16,0 0.31,-0.08 0.31,-0.46 0,-0.21 -0.03,-0.32 -0.16,-0.83 z"
           id="path4515" /><path
           style="fill:#000000;stroke-width:0"
           inkscape:connector-curvature="0"
           d="m 184.41944,693.89476 0,0 0,0 0,0 0,0 0,0.0207 0,0 0,0 0,0.0207 0,0 0,0.0207 0,0 -0.0207,0 0,0.0207 0,0 0,0.0207 0,0 -0.0207,0.0207 0,0 0,0.0207 -0.0207,0 0,0.0207 -0.0207,0 0,0 0,0 0,0.0207 -0.0207,0 0,0 0,0 -0.0207,0 0,0.0207 0,0 -0.0207,0 0,0 0,0 -0.0207,0 0,0 -0.0207,0 0,0.0207 -0.0207,0 0,0 -0.0207,0 0,0 -0.0207,0 0,0 -0.0207,0 c -0.47619,0 -1.98759,-0.16563 -2.5052,-0.20704 -0.16563,-0.0207 -0.39337,-0.0414 -0.39337,-0.43479 0,-0.22774 0.20704,-0.22774 0.4969,-0.22774 0.99379,0 1.0145,-0.18634 1.0145,-0.35197 l -0.0621,-0.41408 -2.58801,-10.26923 c -0.0621,-0.22774 -0.10352,-0.37267 -0.10352,-0.70393 0,-1.18014 0.91098,-1.88408 1.86337,-1.88408 0.68324,0 1.20084,0.39338 1.55281,1.13873 0.37267,0.78675 0.62112,1.98759 0.62112,2.029 0,0.20704 -0.18633,0.20704 -0.24845,0.20704 -0.20704,0 -0.22774,-0.10352 -0.28985,-0.37267 -0.35197,-1.34577 -0.74535,-2.56731 -1.57352,-2.56731 -0.60042,0 -0.60042,0.66253 -0.60042,0.95239 0,0.4969 0.0207,0.60042 0.12423,0.99379 z"
           id="path4517" /><path
           style="fill:#000000;stroke-width:0"
           inkscape:connector-curvature="0"
           d="m 198.95526,633.01858 0,0 0,0 0,0 0,0 0,0.006 0,0 0,0 0,0.006 0,0 0,0.006 -0.006,0 0,0 0,0.006 0,0 0,0.006 -0.006,0 0,0.006 0,0 0,0.006 -0.006,0 0,0.006 -0.006,0 0,0 0,0 0,0.006 -0.006,0 0,0 0,0 -0.006,0 0,0.006 0,0 -0.006,0 0,0 -0.006,0 0,0 0,0 -0.006,0 0,0.006 -0.006,0 0,0 -0.006,0 0,0 -0.006,0 -0.006,0 0,0 c -0.13536,0 -0.565,-0.0471 -0.71802,-0.0589 -0.0412,-0.006 -0.10594,-0.0118 -0.10594,-0.12359 0,-0.0647 0.0588,-0.0647 0.14713,-0.0647 0.27662,0 0.28251,-0.053 0.28251,-0.10005 l -0.0177,-0.11771 -0.73568,-2.91919 c -0.0177,-0.0647 -0.0294,-0.10594 -0.0294,-0.20011 0,-0.33547 0.25896,-0.53557 0.52969,-0.53557 0.19422,0 0.34136,0.11182 0.44141,0.3237 0.10594,0.22364 0.17657,0.565 0.17657,0.57677 0,0.0589 -0.053,0.0589 -0.0706,0.0589 -0.0589,0 -0.0647,-0.0294 -0.0824,-0.10594 -0.10005,-0.38256 -0.21187,-0.7298 -0.44729,-0.7298 -0.17068,0 -0.17068,0.18834 -0.17068,0.27073 0,0.14125 0.006,0.17068 0.0353,0.2825 z"
           id="path4519" /><path
           style="fill:#000000;stroke-width:0"
           inkscape:connector-curvature="0"
           d="m 201.24471,627.62161 0,0.006 0,0 0,0 0,0.006 0,0 0,0 0,0.006 -0.006,0 0,0 0,0.006 0,0 0,0.006 -0.006,0 0,0.006 -0.006,0 0,0.006 -0.006,0.006 0,0 0,0.006 -0.006,0 0,0.006 0,0 -0.006,0 0,0.006 -0.006,0 0,0.006 -0.006,0 0,0.006 -0.006,0 0,0.006 -0.006,0 0,0.006 -0.006,0.006 0,0 -0.006,0.006 -0.006,0.006 0,0 -0.006,0.006 -0.006,0.006 0,0 -0.006,0.006 -0.006,0.006 c -0.7298,0.73568 -0.91814,1.84215 -0.91814,2.73674 0,1.01818 0.22365,2.03637 0.94168,2.76617 0.0765,0.0706 0.0765,0.0824 0.0765,0.10005 0,0.0412 -0.0235,0.0589 -0.0589,0.0589 -0.0589,0 -0.58266,-0.40021 -0.9299,-1.14178 -0.30016,-0.64151 -0.37078,-1.2948 -0.37078,-1.78329 0,-0.45907 0.0647,-1.16532 0.38844,-1.82449 0.35313,-0.71803 0.85339,-1.10058 0.91224,-1.10058 0.0353,0 0.0589,0.0177 0.0589,0.0589 z"
           id="path4521" /><path
           style="fill:#000000;stroke-width:0"
           inkscape:connector-curvature="0"
           d="m 203.31051,632.7655 0,0.006 0,0.006 0,0.0118 0,0.006 0,0 0,0.006 0,0.006 0,0.006 0,0.006 0,0.006 0,0.006 0,0.006 0,0 -0.006,0.006 0,0.006 0,0 0,0.006 0,0.006 0,0.006 0,0.006 -0.006,0.006 0,0.006 0,0.006 -0.006,0 0,0.006 -0.006,0.006 0,0 -0.006,0.006 -0.006,0 -0.006,0.006 0,0 -0.006,0 0,0 -0.006,0 0,0 -0.006,0 -0.006,0.006 0,0 -0.006,0 -0.006,0 0,0 -0.006,0 -0.006,0 -0.006,0 0,0 -0.006,0 -0.006,0 -0.006,0 -0.006,0 -0.006,0 -0.006,0 -0.006,0 c -0.3649,-0.37667 -0.87693,-0.37667 -1.06527,-0.37667 l 0,-0.17656 c 0.11771,0 0.45907,0 0.76511,0.14714 l 0,-3.02513 c 0,-0.21187 -0.0177,-0.2825 -0.54146,-0.2825 l -0.18834,0 0,-0.18245 c 0.206,0.0235 0.71215,0.0235 0.94756,0.0235 0.23542,0 0.74157,0 0.94756,-0.0235 l 0,0.18245 -0.18833,0 c -0.52381,0 -0.54146,0.0647 -0.54146,0.2825 z"
           id="path4523" /><path
           style="fill:#000000;stroke-width:0"
           inkscape:connector-curvature="0"
           d="m 209.67858,630.37012 0.0177,0 0.0236,0 0.0177,0 0.006,0 0.0118,0 0.006,0 0.0118,0.006 0.006,0 0.0118,0 0.006,0 0.006,0.006 0.0118,0 0.006,0 0.006,0.006 0.006,0.006 0.0118,0 0.006,0.006 0.006,0.006 0,0 0.006,0.006 0.006,0.006 0,0.006 0.006,0 0,0.006 0,0.006 0.006,0 0,0.006 0,0.006 0,0 0,0.006 0.006,0.006 0,0.006 0,0 0,0.006 0,0.006 0,0.006 0,0.006 c 0,0.11771 -0.10594,0.11771 -0.20599,0.11771 l -3.16638,0 c -0.10005,0 -0.20599,0 -0.20599,-0.11771 0,-0.11771 0.10594,-0.11771 0.20599,-0.11771 z"
           id="path4525" /><path
           style="fill:#000000;stroke-width:0"
           inkscape:connector-curvature="0"
           d="m 212.36823,630.29949 0,0.0471 0.006,0.0412 0,0.0412 0,0.0412 0.006,0.0412 0,0.0412 0.006,0.0353 0.006,0.0353 0.006,0.0353 0.006,0.0353 0.006,0.0353 0.006,0.0353 0.0177,0.0647 0.0177,0.0589 0.0177,0.0589 0.0235,0.053 0.0235,0.053 0.0235,0.0471 0.0235,0.0412 0.0294,0.0412 0.0294,0.0412 0.0294,0.0353 0.0294,0.0294 0.0294,0.0294 0.0294,0.0294 0.0353,0.0235 0.0294,0.0235 0.0353,0.0177 0.0353,0.0177 0.0294,0.0177 0.0353,0.0118 0.0353,0.0118 0.0294,0.006 0.0353,0.0118 0.0294,0.006 0.0294,0 0.0353,0.006 0.0294,0 c 0.053,0 0.41787,-0.006 0.62386,-0.21776 -0.2413,-0.0177 -0.27662,-0.19422 -0.27662,-0.27073 0,-0.15303 0.10594,-0.26485 0.27073,-0.26485 0.15303,0 0.27074,0.0942 0.27074,0.27073 0,0.40021 -0.4473,0.62975 -0.89459,0.62975 -0.73569,0 -1.27126,-0.63563 -1.27126,-1.35955 0,-0.74745 0.57677,-1.32422 1.25948,-1.32422 0.78277,0 0.97111,0.70037 0.97111,0.75922 0,0.0589 -0.0589,0.0589 -0.0765,0.0589 -0.053,0 -0.0647,-0.0235 -0.0765,-0.0589 -0.17067,-0.54735 -0.55323,-0.61797 -0.76511,-0.61797 -0.31193,0 -0.82985,0.25307 -0.82985,1.19474 z"
           id="path4527" /><path
           style="fill:#000000;stroke-width:0"
           inkscape:connector-curvature="0"
           d="m 217.04718,630.27595 0,0.0706 -0.006,0.0706 -0.006,0.0647 -0.0118,0.0706 -0.0177,0.0647 -0.0177,0.0647 -0.0177,0.0647 -0.0235,0.0589 -0.0294,0.0589 -0.0294,0.0589 -0.0294,0.0589 -0.0353,0.053 -0.0353,0.0589 -0.0353,0.0471 -0.0412,0.053 -0.0471,0.0471 -0.0412,0.0471 -0.0471,0.0412 -0.053,0.0412 -0.0471,0.0353 -0.053,0.0412 -0.053,0.0294 -0.0589,0.0294 -0.053,0.0294 -0.0588,0.0235 -0.0647,0.0236 -0.0589,0.0177 -0.0647,0.0177 -0.0589,0.0118 -0.0647,0.006 -0.0647,0.006 -0.0706,0.006 -0.006,-0.12948 c 0.25896,0 0.51203,-0.12949 0.66506,-0.38256 0.15302,-0.25307 0.15302,-0.58855 0.15302,-0.81219 0,-0.21188 0,-0.52381 -0.12948,-0.78277 -0.12948,-0.26484 -0.38844,-0.43552 -0.68272,-0.43552 l 0,0 c -0.24719,0 -0.50615,0.12359 -0.66505,0.39432 -0.14714,0.25896 -0.14714,0.61209 -0.14714,0.82397 0,0.22953 0,0.54146 0.14125,0.80042 0.15891,0.27073 0.43553,0.39433 0.66506,0.39433 l 0.006,0.12948 c -0.72979,0 -1.30068,-0.64152 -1.30068,-1.37132 0,-0.75334 0.61209,-1.31245 1.2948,-1.31245 0.71214,0 1.30069,0.57089 1.30069,1.31245 z"
           id="path4529" /><path
           style="fill:#000000;stroke-width:0"
           inkscape:connector-curvature="0"
           d="m 218.44203,630.15824 0.0118,0 0.0118,-0.006 0.0177,0 0.0177,-0.006 0.0235,-0.006 0.0177,-0.006 0.0236,-0.006 0.0235,-0.006 0.0235,-0.006 0.0235,-0.006 0.0294,-0.0118 0.0235,-0.0118 0.0235,-0.006 0.0294,-0.0177 0.0235,-0.0118 0.0294,-0.0118 0.0235,-0.0177 0.0235,-0.0177 0.0235,-0.0177 0.0236,-0.0177 0.0235,-0.0177 0.0235,-0.0235 0.0177,-0.0235 0.0177,-0.0235 0.0177,-0.0294 0.006,-0.0118 0.0118,-0.0177 0.006,-0.0118 0.006,-0.0177 0.006,-0.0118 0.006,-0.0177 0,-0.0177 0.006,-0.0118 0.006,-0.0177 0,-0.0177 0.006,-0.0177 0,-0.0235 0,-0.0177 0,-0.0177 c 0,-0.30016 -0.20599,-0.53558 -0.65917,-0.53558 -0.49438,0 -0.70625,0.33547 -0.81219,0.83574 -0.0177,0.0706 -0.0294,0.0942 -0.0883,0.0942 -0.0706,0 -0.0706,-0.0412 -0.0706,-0.14125 l 0,-0.77688 c 0,-0.0942 0,-0.13536 0.0647,-0.13536 0.0235,0 0.0294,0.006 0.14125,0.11182 0.0118,0.0118 0.0118,0.0235 0.11771,0.13537 0.25896,-0.24131 0.52381,-0.24719 0.6474,-0.24719 0.67094,0 0.94168,0.38844 0.94168,0.81219 0,0.30604 -0.17657,0.48261 -0.24719,0.55323 -0.19422,0.18834 -0.41787,0.23542 -0.66506,0.2825 -0.32959,0.0647 -0.72391,0.13537 -0.72391,0.47673 0,0.20599 0.15302,0.44729 0.65917,0.44729 0.64151,0 0.67094,-0.52969 0.68271,-0.71214 0.006,-0.053 0.0589,-0.053 0.0706,-0.053 0.0765,0 0.0765,0.0353 0.0765,0.14125 l 0,0.59443 c 0,0.10006 0,0.14126 -0.0647,0.14126 -0.0294,0 -0.0412,0 -0.11771,-0.0706 -0.0177,-0.0235 -0.0765,-0.0765 -0.10005,-0.0942 -0.21777,0.1648 -0.45907,0.1648 -0.54735,0.1648 -0.71803,0 -0.93579,-0.39433 -0.93579,-0.72392 0,-0.2001 0.0883,-0.36489 0.24719,-0.49437 0.18833,-0.15303 0.35313,-0.18834 0.77688,-0.27074 z"
           id="path4531" /><path
           style="fill:#000000;stroke-width:0"
           inkscape:connector-curvature="0"
           d="m 221.50836,628.03359 0,-0.006 0,-0.006 -0.006,0 0,-0.006 0,-0.006 0,-0.006 -0.006,-0.006 0,-0.006 0,0 -0.006,-0.006 0,-0.006 0,-0.006 0,0 0,-0.006 -0.006,-0.006 0,0 0,-0.006 0,0 0,-0.006 0,0 0,-0.006 0,0 -0.006,-0.006 0,0 0,-0.006 0,-0.006 0,0 0,-0.006 0,-0.006 0,0 c 0,-0.12948 0.11182,-0.16479 0.17068,-0.16479 0.0294,0 0.15891,0.0177 0.21776,0.15302 0.0177,0.0471 0.0471,0.23542 0.20011,1.07116 0.053,-0.006 0.0942,-0.0118 0.19422,-0.0118 0.9711,0 1.87746,0.91813 1.87746,1.84214 l -0.16479,-0.12948 c 0,-0.66505 -0.75923,-1.37719 -1.65971,-1.37719 l 0,0 c -0.0471,0 -0.0589,0 -0.10593,0.006 -0.0706,0 -0.0765,0.006 -0.0765,0.0235 0,0.0118 0.10005,0.54735 0.1177,0.62975 0.18245,0.75334 0.64152,1.31246 1.15944,1.31246 0.4061,0 0.56501,-0.31782 0.56501,-0.59444 l 0.16479,0.12948 c 0,0.45318 -0.22953,0.80631 -0.67094,0.80631 -0.84751,0 -1.20064,-1.13589 -1.54788,-2.27767 -0.63563,0.11771 -0.96522,0.44729 -0.96522,0.86516 0,0.1648 0.13537,0.80631 0.4885,1.21241 0.0471,0.053 0.0471,0.0647 0.0471,0.0765 0,0.0235 -0.0118,0.0589 -0.0706,0.0589 -0.16479,0 -0.61797,-0.8475 -0.61797,-1.41251 0,-0.54735 0.38844,-0.97698 1.01819,-1.12412 z"
           id="path4533" /><path
           style="fill:#000000;stroke-width:0"
           inkscape:connector-curvature="0"
           d="m 226.04016,630.48783 0,0.0412 0,0.0471 0,0.0471 -0.006,0.0471 0,0.10005 -0.0118,0.10005 -0.006,0.10594 -0.0118,0.11183 -0.0177,0.11771 -0.0177,0.1177 -0.0235,0.11771 -0.0294,0.1236 -0.0294,0.12359 -0.0353,0.1236 -0.0412,0.12359 -0.0471,0.1236 -0.0236,0.0647 -0.0294,0.0647 -0.0294,0.0589 -0.0294,0.0647 c -0.34724,0.71803 -0.85339,1.10058 -0.91224,1.10058 -0.0353,0 -0.0589,-0.0235 -0.0589,-0.0589 0,-0.0177 0,-0.0294 0.11182,-0.13537 0.57678,-0.58266 0.90637,-1.51256 0.90637,-2.73085 0,-1.00053 -0.21188,-2.03048 -0.94168,-2.76617 -0.0765,-0.0706 -0.0765,-0.0824 -0.0765,-0.10005 0,-0.0353 0.0235,-0.0589 0.0589,-0.0589 0.0589,0 0.58854,0.40021 0.9299,1.14178 0.30016,0.64151 0.37078,1.28891 0.37078,1.78329 z"
           id="path4535" /></g></g>  </g>
</svg>
